<?xml version="1.0" encoding="iso-8859-1"?>
<!-- Generator: Adobe Illustrator 22.0.1, SVG Export Plug-In . SVG Version: 6.00 Build 0)  -->
<svg version="1.1" id="Calque_1" xmlns="http://www.w3.org/2000/svg" xmlns:xlink="http://www.w3.org/1999/xlink" x="0px" y="0px"
	 viewBox="0 0 609 125" style="enable-background:new 0 0 609 125;" xml:space="preserve">
<g>
	<path d="M11.146,13.613h72.69v7.006H18.735V60.76h58.532v7.007H18.735v41.017h65.831v7.006h-73.42V13.613z"/>
	<path d="M104.413,64.993v-0.292c0-28.901,21.603-52.84,51.088-52.84c18.246,0,29.193,6.715,39.703,16.349l-5.401,5.547
		c-8.904-8.612-19.122-15.035-34.448-15.035c-24.522,0-43.06,19.997-43.06,45.688v0.292c0,25.836,18.83,45.979,43.206,45.979
		c14.742,0,24.814-5.693,35.178-15.911l5.108,4.963c-10.801,10.656-22.479,17.809-40.578,17.809
		C126.016,117.541,104.413,94.332,104.413,64.993z"/>
	<path d="M209.212,64.993v-0.292c0-27.88,20.582-52.84,51.526-52.84c30.945,0,51.234,24.668,51.234,52.548v0.292
		c0,27.879-20.581,52.84-51.525,52.84C229.501,117.541,209.212,92.872,209.212,64.993z M304.09,64.993v-0.292
		c0-25.252-18.392-45.979-43.644-45.979c-25.252,0-43.352,20.436-43.352,45.688v0.292c0,25.252,18.392,45.979,43.644,45.979
		C285.99,110.681,304.09,90.245,304.09,64.993z"/>
	<path d="M337.655,13.613h35.907c24.96,0,39.265,11.531,39.265,30.652v0.292c0,19.852-15.18,31.091-39.849,31.091h-32.112v40.141
		h-3.211V13.613z M372.979,72.729c22.625,0,36.638-9.926,36.638-28.025v-0.292c0-17.37-13.429-27.88-36.346-27.88h-32.404v56.197
		H372.979z"/>
	<path d="M435.302,13.613h71.377v2.919h-68.166v46.417h61.89v2.92h-61.89v47.001h68.896v2.919h-72.107V13.613z"/>
	<path d="M531.78,13.613h3.211v99.257h62.765v2.919H531.78V13.613z"/>
</g>
</svg>
