<svg id="Calque_1" data-name="Calque 1" xmlns="http://www.w3.org/2000/svg" viewBox="0 0 183.5 35.86"><defs><style>.cls-1{fill:#1d1d1b;}</style></defs><title>logo-kanecaron</title><path d="M53.2,25.36a35.09,35.09,0,0,1-4.6,1.85c-1,.27-1.66.25-1.6-1,.07-1.4-.74-1.2-1.6-.9a36.47,36.47,0,0,1-6.29,2.07c-1.29.21-2.52.41-3.12-1.24-.36-1-1.09-.6-1.72-.24a12.77,12.77,0,0,1-4.05,1.57c-1.53.28-3.09.31-4.09-1.2s-.71-3.07.49-4.5a19.2,19.2,0,0,1,7.28-5c1-.45,2.49-.5,2.72-1.78.36-2,.89-4,.31-6a2,2,0,0,0-2.3-1.27c-1.22.13-2.05.71-2.12,2-.12,2-1.22,2.46-3,2.52s-1.78-.62-1.12-1.75a9,9,0,0,1,5.52-4,9.11,9.11,0,0,1,5-.3,3.47,3.47,0,0,1,2.88,3.66c-.19,3.86-.51,7.71-.74,11.56-.09,1.44-.73,3.2,1.44,3.73a4.16,4.16,0,0,0,4.62-2.78,26.82,26.82,0,0,0,.6-4.3c.2-2.46.32-4.93.47-7.39,0-.43.2-1-.23-1.24-2.14-1.13-.35-1.5.39-2a16.28,16.28,0,0,1,2.56-1.23c1.62-.61,2.07-.27,2,1.46,0,.67-.35,1.56.38,1.9.54.26,1.12-.44,1.63-.78a17.91,17.91,0,0,1,4-2.16c3.23-1.13,5.75.77,5.54,4.21-.22,3.66-.54,7.32-.73,11-.06,1.21-.65,2.92,1.49,3a3.42,3.42,0,0,0,3.36-3.39A14.56,14.56,0,0,1,74.51,8.35,9.78,9.78,0,0,1,79.59,6c1.41-.13,2.87,0,3.7,1.34s.43,2.68-.32,4c-1.15,1.94-3.2,2.58-5,3.52-.39.2-.83.29-1.24.47-1.15.52-3,.24-3.23,1.86-.38,2.23-.65,4.57.77,6.61a4,4,0,0,0,5,1.47c3.35-1.6,4.4-2.6,4.37-5.83C83.57,13.87,87.89,8.06,93,6.25a3.93,3.93,0,0,1,3.32-.09c1,.56,2.19,1.29,2,2.5-.17,1-1.47,1.43-2.45,1.85s-1-.44-1.36-.92c-1.21-1.77-2.8-1.83-3.84.06A18,18,0,0,0,88.51,21.9c.62,3.25,3.08,4.25,6,2.71a6.42,6.42,0,0,0,2.62-2.14c1.9-3.06,4.81-4.73,8-6.09,1-.42,2.46-.47,2.77-1.7.52-2,1-4.09.32-6.18a1.83,1.83,0,0,0-2.13-1.2,2.27,2.27,0,0,0-2.31,2.12c-.08,2.08-1.42,2.24-2.93,2.4-1.29.14-1.8-.17-1.21-1.57,1.57-3.68,8.68-6,12-3.87a3.29,3.29,0,0,1,1.53,3.25c-.3,3.92-.59,7.83-.81,11.74-.08,1.34-.46,2.95,1.63,3.23,1.85.24,4-1,4.22-2.7.45-3.9.76-7.81,1.11-11.72.11-1.12-.44-1.66-1.58-1.55-.33,0-.66,0-.72-.41s.29-.52.57-.64C119,7,120.3,6.46,121.68,6s2.56-.51,2.56,1.5c0,.88.52.91,1.14.48a12,12,0,0,0,1.22-.9A3.65,3.65,0,0,1,131,6.33c3.16,1.76,5.5.84,7.57-1.77.28-.35.52-.91,1.16-.81.46.42.06.67-.17.94a25.22,25.22,0,0,1-4.81,4.53,5,5,0,0,1-5.65.4c-3.07-1.52-5.16-.1-5.33,3.34-.15,3.16-.78,6.29-.69,9.46,0,.65-.2,1.38.72,1.76,1.2.49.67,1-.15,1.28-1.13.41-2.27.79-3.42,1.12s-2.15.75-2.14-1.15c0-1.06-.86-.65-1.42-.47-1.92.64-3.8,1.41-5.75,1.92-1.36.37-2.88.78-3.6-1.25-.33-.93-1.16-.41-1.79-.15-1.8.73-3.46,1.86-5.56,1.66-.92-.09-2-.23-2.36-1-.78-1.52-1.67-1.09-2.76-.55a13.07,13.07,0,0,1-5.79,1.63A4.54,4.54,0,0,1,84.72,25c-.67-1.19-1.36-1-2.29-.42a14.89,14.89,0,0,1-6.21,2.69c-2.47.33-4.72,0-6.16-2.33-.71-1.12-1.48-1-2.37-.36a20.27,20.27,0,0,1-5.09,2.51c-2.94,1-3.72.33-3.54-2.71.23-4,.42-8.09.61-12.13,0-1.08.21-2.29-.93-2.89A3.14,3.14,0,0,0,55.2,10a6.43,6.43,0,0,0-2.83,5.27,59.64,59.64,0,0,1-.49,6.81C51.73,23.39,51.71,24.59,53.2,25.36Zm54.6-6c-.17-1.12.38-2.9-1.69-2.29a5.68,5.68,0,0,0-4.1,4.09c-.57,2.2,1.1,3.7,3.28,3.1C108,23.47,107.41,21.15,107.8,19.32Zm-71.32.19c-.18-.9.32-2.24-1.41-2.07a5.64,5.64,0,0,0-4.38,4.63,2.74,2.74,0,0,0,1,2.49c.94.69,1.8.3,2.66-.12C36.55,23.41,36.16,21.32,36.48,19.51ZM79.84,10c0-1.39-1.15-2.08-2.29-1.31a8.37,8.37,0,0,0-3.33,4.65c-.16.53-.2,1,.54,1.1C76.33,14.62,79.85,11.55,79.84,10Z"/><path d="M29.35,2.62C24.08,3.78,20.25,7.37,16,10.3c-1.29.9-1.44,1.55-.39,2.82,3.3,4,5.4,8.69,8.32,12.9,2,2.93,4.29,5.73,7.68,7.14C38.54,36,45,35,50.91,30.49c.79-.6,1.67-2.36,2.69-1.13.68.83-1,1.67-1.78,2.25-5.47,4-11.71,4.85-18.23,3.89-3.81-.57-7.6-1.43-10.79-3.84a30.1,30.1,0,0,1-6.9-8,68.53,68.53,0,0,0-5.22-7.44c-.27-.31-.51-.86-1-.65s-.43.71-.46,1.15c-.13,2.08-.28,4.17-.41,6.25-.09,1.39.25,2.52,1.82,2.89.43.1.9.31.91.83s-.58.66-1,.65c-3.29,0-6.57-.08-9.86-.14-.33,0-.65-.14-.68-.52a.74.74,0,0,1,.69-.78C3,25.6,3,23.87,3.07,22.21Q3.73,13.8,4.4,5.38c.08-1-.12-1.79-1.38-1.75-.38,0-.83,0-.9-.5s.36-.67.68-.79c2-.77,4-1.55,6-2.23,1-.34,1.53.13,1.45,1.26-.21,3-.38,6.06-.56,9.09,0,.49-.26,1.1.23,1.41s1-.14,1.36-.43c2.68-2,5.37-4,8-6.08.67-.52,1.52-1.09,1.13-2.18s.21-1.24,1-1.25c2.57,0,5.15,0,7.72,0Z"/><path d="M159.14,25.5c-1.79.5-3.46,1-5.16,1.43-1.21.3-1.17-.54-1.1-1.36.41-4.85.83-9.7,1.2-14.55.08-1,.65-2.27-1.05-2.79-.67-.2-.17-.7.24-.91a21.58,21.58,0,0,1,4.43-1.63c1.23-.32,1.69.14,1.48,1.34-.11.57-.3,1.18.25,1.57s1.06-.21,1.49-.48c1.74-1,3.37-2.25,5.5-2.34,2.66-.11,4.08,1.11,4.18,3.75a66.41,66.41,0,0,1-.66,9.45,11.39,11.39,0,0,0,0,3c.35,2.21,1.2,2.61,3.22,1.49,5.63-3.13,6.85-8.76,3.11-14.14-.39-.57-1.48-1.36-.83-1.81.9-.63,1.46.61,1.91,1.29,4.16,6.24,2.07,13-5.09,16.43a12.53,12.53,0,0,1-3.91,1.4c-2.73.31-3.52-.35-3.35-3.08.2-3.22.53-6.43.79-9.65.09-1.13.21-2.27.2-3.4a2.06,2.06,0,0,0-2.87-2.19,6.12,6.12,0,0,0-4.45,5.09c-.31,3.21-.43,6.44-.74,9.64C157.81,24.15,158.54,24.65,159.14,25.5Z"/><path d="M140.05,27.12c-4.27,0-7.24-2.77-7.63-6.74-.55-5.57,3.38-12.08,8.49-14.07s9.47,1,9.6,7.08c.12,5.34-1.82,9.91-6.76,12.74A6.66,6.66,0,0,1,140.05,27.12Zm5.58-11.28c0-3.2-.35-4.95-1-6.13-1.23-2.08-2.9-2.37-4.59-.86-3.52,3.16-3.54,12.31-1.88,15,1.43,2.34,4.09,2.27,5.47-.11A17.06,17.06,0,0,0,145.63,15.84Z"/><path class="cls-1" d="M183.5,7.9a2,2,0,1,1-2-2A2,2,0,0,1,183.5,7.9ZM180,7.9a1.53,1.53,0,0,0,1.54,1.57A1.51,1.51,0,0,0,183,7.91a1.52,1.52,0,1,0-3,0Zm1.22,1h-.46V7a4.56,4.56,0,0,1,.76-.06,1.09,1.09,0,0,1,.67.15.5.5,0,0,1-.21.89V8c.2.07.29.22.35.49a1.52,1.52,0,0,0,.15.47H182a1.52,1.52,0,0,1-.16-.47c0-.21-.16-.3-.41-.3h-.21Zm0-1.1h.21c.26,0,.46-.08.46-.29s-.13-.3-.42-.3a1.11,1.11,0,0,0-.25,0Z"/></svg>