<svg id="Calque_1" data-name="Calque 1" xmlns="http://www.w3.org/2000/svg" viewBox="0 0 609 125"><defs><style>.cls-1{fill:#fff;}</style></defs><title>‬logo-white</title><path class="cls-1" d="M11.15,13.61H83.84v7H18.74V60.76H77.27v7H18.74v41H84.57v7H11.15Z"/><path class="cls-1" d="M104.41,65V64.7c0-28.9,21.61-52.84,51.09-52.84,18.25,0,29.19,6.72,39.7,16.35l-5.4,5.55c-8.9-8.62-19.12-15-34.45-15-24.52,0-43.06,20-43.06,45.69v.29c0,25.84,18.83,46,43.21,46,14.74,0,24.81-5.69,35.18-15.91l5.11,5c-10.8,10.66-22.48,17.81-40.58,17.81C126,117.54,104.41,94.33,104.41,65Z"/><path class="cls-1" d="M209.21,65V64.7c0-27.88,20.58-52.84,51.53-52.84S312,36.53,312,64.41v.29c0,27.88-20.58,52.84-51.52,52.84S209.21,92.87,209.21,65Zm94.88,0V64.7c0-25.25-18.39-46-43.64-46s-43.36,20.44-43.36,45.69v.29c0,25.25,18.4,46,43.65,46S304.09,90.25,304.09,65Z"/><path class="cls-1" d="M337.66,13.61h35.9c25,0,39.27,11.53,39.27,30.66v.29c0,19.85-15.18,31.09-39.85,31.09H340.87v40.14h-3.21ZM373,72.73c22.62,0,36.64-9.93,36.64-28v-.29c0-17.37-13.43-27.88-36.35-27.88h-32.4v56.2Z"/><path class="cls-1" d="M435.3,13.61h71.38v2.92H438.51V63H500.4v2.92H438.51v47h68.9v2.92H435.3Z"/><path class="cls-1" d="M531.78,13.61H535v99.26h62.77v2.92h-66Z"/></svg>