<?xml version="1.0" encoding="utf-8"?>
<!-- Generator: Adobe Illustrator 22.0.1, SVG Export Plug-In . SVG Version: 6.00 Build 0)  -->
<svg version="1.1" id="Calque_1" xmlns="http://www.w3.org/2000/svg" xmlns:xlink="http://www.w3.org/1999/xlink" x="0px" y="0px"
	 viewBox="0 0 1080 1080" style="enable-background:new 0 0 1080 1080;" xml:space="preserve">
<g>
	<polygon points="871.411,480.765 871.411,396.237 830.851,480.765 	"/>
	<path d="M744.66,737.601c5.07,0,8.45-3.251,8.45-8.128s-3.38-8.128-8.45-8.128s-8.45,3.251-8.45,8.128
		S739.59,737.601,744.66,737.601z"/>
	<path d="M540.168,63C265.763,63,43.302,276.974,43.302,540.91c0,263.95,222.461,477.91,496.865,477.91
		c274.418,0,496.865-213.961,496.865-477.91C1037.033,276.974,814.586,63,540.168,63z M570.588,357.224
		c0-1.626,18.59-63.396,18.59-63.396l202.802-1.626l-18.59,63.396l-65.911,1.626l-67.601,230.827h-74.361l65.911-230.827H570.588z
		 M530.028,297.079c10.14,3.251,18.59,9.753,23.66,17.881c11.83,17.881,3.38,43.89-6.76,61.771
		c-30.42,45.515-84.501,48.766-131.821,63.396l-21.97,6.502c-5.07,9.753-5.07,22.758-8.45,34.136c-1.69,29.26,0,65.022,30.42,78.026
		c28.73,6.502,52.391-8.128,72.671-26.009c6.76-8.128,13.52-16.255,20.28-26.009c1.69,0,5.07,1.626,6.76,3.251
		c0,6.502-5.07,11.379-8.45,16.255c-28.73,37.388-70.981,82.903-126.751,69.898c-33.8-13.004-42.25-48.766-43.94-81.277
		c0-58.52,21.97-107.286,54.081-151.176C423.556,321.462,470.877,279.198,530.028,297.079z M186.954,487.267l3.38-14.63
		l-33.8,115.414H87.243l82.811-295.849h81.121c0,0,109.851-13.004,98.021,91.031C333.986,492.144,232.584,490.518,186.954,487.267z
		 M810.571,903.407c-27.04-14.63-104.781-17.881-104.781-17.881c-123.371-61.771-343.074-19.507-343.074-19.507
		c-13.52,6.502-37.18,4.877-37.18,4.877c-50.701,55.268-55.771,45.515-55.771,45.515c-8.45,1.626-10.14-13.004-10.14-13.004
		c28.73-50.392,59.151-69.898,59.151-69.898c10.14-1.626,38.87,4.877,38.87,4.877c18.59-22.758,38.87-27.634,38.87-27.634
		c3.38-29.26,10.14-42.264,10.14-42.264c-30.42-13.004-18.59-39.013-18.59-39.013c18.59-34.136,47.32-6.502,47.32-6.502
		c108.161-22.758,241.673,13.004,241.673,13.004c6.76-19.507,20.28-27.634,20.28-27.634c-64.221-78.026-52.391-86.154-52.391-86.154
		c37.18-6.502,79.431,68.273,79.431,68.273c49.01,3.251,70.981,56.894,70.981,56.894c5.07,27.634-47.32,21.132-47.32,21.132
		c5.07,53.643-32.11,74.775-32.11,74.775c106.471,22.758,116.611,37.388,116.611,37.388
		C842.681,914.786,808.881,905.033,810.571,903.407z M873.101,586.426v-48.766h-69.291l-23.66,48.766H704.1l147.032-294.224h89.571
		v294.224H873.101z"/>
	<path d="M450.597,414.118c62.531-19.507,99.711-94.282,50.701-112.163c-50.701-16.255-98.021,123.541-98.021,123.541
		S386.376,433.624,450.597,414.118z"/>
	<path d="M224.134,352.347l-11.83,43.89l-8.45,32.511c0,0,32.11,8.128,55.771-13.004c15.21-14.63,21.97-52.017,11.83-60.145
		C263.005,349.096,229.204,352.347,224.134,352.347z"/>
</g>
</svg>
