<?xml version="1.0" encoding="utf-8"?>
<!-- Generator: Adobe Illustrator 22.1.0, SVG Export Plug-In . SVG Version: 6.00 Build 0)  -->
<svg version="1.1" id="Calque_1" xmlns="http://www.w3.org/2000/svg" xmlns:xlink="http://www.w3.org/1999/xlink" x="0px" y="0px"
	 viewBox="0 0 59.9 39.6" style="enable-background:new 0 0 59.9 39.6;" xml:space="preserve">
<title>‬exit</title>
<path class="st0" d="M19.1,19.8L2.4,36.6c-0.5,0.5-0.5,1.2,0,1.7c0.5,0.5,1.2,0.5,1.7,0l17-16.9l16.9,16.9c0.2,0.2,0.5,0.3,0.8,0.3
	c0.7,0,1.2-0.6,1.2-1.2c0-0.3-0.1-0.6-0.3-0.8L22.8,19.8L39.6,3c0.5-0.5,0.5-1.2,0-1.7c-0.5-0.5-1.2-0.5-1.7,0c0,0,0,0,0,0L21,18.3
	L4,1.3C3.4,1,2.7,1.2,2.3,1.7C2.1,2.1,2.1,2.6,2.3,3L19.1,19.8z"/>
</svg>
