<?xml version="1.0" encoding="utf-8"?>
<!-- Generator: Adobe Illustrator 22.1.0, SVG Export Plug-In . SVG Version: 6.00 Build 0)  -->
<svg version="1.1" id="Calque_1" xmlns="http://www.w3.org/2000/svg" xmlns:xlink="http://www.w3.org/1999/xlink" x="0px" y="0px"
	 viewBox="0 0 59.9 39.6" style="enable-background:new 0 0 59.9 39.6;" xml:space="preserve">
<title>‬menu</title>
<path class="st0" d="M3.9,7.1h34.9c0.7,0,1.2-0.5,1.2-1.2s-0.5-1.2-1.2-1.2H3.9c-0.7,0-1.2,0.5-1.2,1.2S3.3,7.1,3.9,7.1z"/>
<path class="st0" d="M38.8,18.8H3.9c-0.7,0.1-1.2,0.6-1.1,1.3c0.1,0.6,0.5,1,1.1,1.1h34.9c0.7-0.1,1.2-0.6,1.1-1.3
	C39.8,19.3,39.4,18.8,38.8,18.8z"/>
<path class="st0" d="M38.8,32.9H3.9c-0.7,0.1-1.2,0.6-1.1,1.3c0.1,0.6,0.5,1,1.1,1.1h34.9c0.7-0.1,1.2-0.6,1.1-1.3
	C39.8,33.4,39.4,33,38.8,32.9z"/>
</svg>
