<?xml version="1.0" encoding="utf-8"?>
<!-- Generator: Adobe Illustrator 22.1.0, SVG Export Plug-In . SVG Version: 6.00 Build 0)  -->
<svg version="1.1" id="Capa_1" xmlns="http://www.w3.org/2000/svg" xmlns:xlink="http://www.w3.org/1999/xlink" x="0px" y="0px"
	 viewBox="0 0 191.1 191.1" style="enable-background:new 0 0 191.1 191.1;" xml:space="preserve">
<style type="text/css">
	.st0{fill:#4A4A4A;}
</style>
<g>
	<path class="st0" d="M60.3,40.5C49.5,47.1,41,56.6,35.6,67.8c-0.1,0.2-0.2,0.4-0.3,0.6c-0.3,0.7-0.6,1.4-1,2.1
		c-0.2,0.4-0.3,0.7-0.4,1.1c-0.2,0.5-0.4,1.1-0.6,1.6c-0.2,0.5-0.4,1-0.5,1.5c-0.1,0.4-0.3,0.8-0.4,1.3c-0.2,0.6-0.4,1.2-0.6,1.8
		c0,0.1-0.1,0.3-0.1,0.4c0,0,0,0.1,0,0.1C29.9,84,29,90.1,29,96.4c0,36.2,29.5,65.7,65.7,65.7c36.2,0,65.7-29.5,65.7-65.7
		c0-8.5-1.7-16.7-4.6-24.2c0,0,0-0.1,0-0.1c-0.1-0.2-0.2-0.4-0.2-0.6c-0.2-0.4-0.3-0.8-0.5-1.2c-0.2-0.5-0.5-1.1-0.7-1.6
		c-0.2-0.4-0.3-0.7-0.5-1.1c-0.3-0.6-0.6-1.2-0.9-1.8c-0.1-0.3-0.3-0.6-0.4-0.8c-0.5-0.8-0.9-1.7-1.4-2.5c-0.1-0.2-0.3-0.5-0.4-0.7
		c-0.4-0.6-0.8-1.2-1.2-1.8c-0.2-0.3-0.4-0.6-0.6-0.9c-0.4-0.5-0.7-1-1.1-1.6c-0.2-0.3-0.4-0.6-0.6-0.9c-0.4-0.5-0.8-1.1-1.3-1.6
		c-0.2-0.2-0.4-0.4-0.5-0.7c-0.6-0.7-1.2-1.4-1.8-2c0,0-0.1-0.1-0.1-0.2c-4.3-4.7-9.2-8.8-14.6-12.1c-0.1-0.1-0.2-0.1-0.4-0.2
		c-9.8-5.9-21.4-9.3-33.6-9.3c-12.6,0-24.3,3.5-34.3,9.7C60.4,40.4,60.3,40.4,60.3,40.5z M39.3,76.5c0.1-0.3,0.2-0.6,0.3-0.9
		c0.2-0.6,0.5-1.2,0.7-1.7c0.1-0.2,0.2-0.4,0.3-0.6c4.1-9.5,10.6-17.7,18.7-23.8c1.1,6.7,3.5,11.9,7,15.5c2,2,3,3.9,3,5.5
		c0,3-3.5,6.2-6.8,9.3c-0.9,0.8-1.7,1.6-2.5,2.4c-2.7,2.7-5.3,4-7.2,3.7c-1.2-0.2-2.3-1.1-3.1-2.8c-1.4-2.8-4.7-4.9-10.4-6.5
		C39.3,76.6,39.3,76.5,39.3,76.5z M130.2,68.9c-0.3-0.1-6.2-3.1-15.2-6.2c0.6-1.6,3.1-5.9,12.5-15.3c3.2,2.1,6.2,4.6,8.9,7.3
		c0,0,0,0,0.1,0.1c0.6,0.6,1.2,1.3,1.9,1.9c0,0,0.1,0.1,0.1,0.1c0.6,0.7,1.2,1.4,1.8,2.1c0,0,0.1,0.1,0.1,0.1c0.5,0.6,1,1.2,1.4,1.8
		c0.2,0.2,0.3,0.4,0.5,0.6c0.4,0.5,0.7,1,1.1,1.6c0.1,0.2,0.3,0.4,0.4,0.6c0.5,0.7,0.9,1.4,1.3,2.1c0.1,0.2,0.2,0.4,0.3,0.5
		c0.3,0.6,0.7,1.1,1,1.7c0.1,0.3,0.3,0.5,0.4,0.8c0.3,0.5,0.6,1.1,0.8,1.6c0.1,0.2,0.2,0.5,0.4,0.7c0.3,0.7,0.7,1.4,1,2.1
		c-5.9,12.7-8.8,14.4-9.1,14.6c-5.7,2.8-6,8.8-6.5,15.2c-0.2,3.6-0.5,7.8-1.6,12.3c-0.6,2.5-1.9,5.7-4.4,6.4
		c-2.1,0.6-4.6-0.7-5.6-1.6c-1.6-1.9-5.3-14.1-5.3-16.6c0-2.9-2.8-5.5-10.7-12.1c-2.1-1.8-5-4.1-6.8-5.9c4.2-0.7,12.7-0.7,17.2-0.7
		c11.8,0,15.7-11.3,15.9-11.8C132.4,71.5,131.7,69.7,130.2,68.9z M121.3,43.9c-12.8,13.1-14,18-13.3,21c0.4,1.9,1.8,3.3,3.8,4
		c5.2,1.7,9.5,3.5,12.2,4.7c-1.4,2-3.9,4.4-8,4.4c-16.3,0-25.5,0.3-25.5,6.6c0,2.9,2.8,5.5,10.7,12.1c2.9,2.4,7.2,6,8.3,7.5
		c0.4,4.5,4.4,17.8,7.3,20.7c2,2,5.6,3.8,9.3,3.8c1,0,2-0.1,3-0.4c3.1-0.9,7.3-3.5,9.2-11.3c1.3-5.1,1.6-9.8,1.8-13.5
		c0.4-6.1,0.7-8.5,2.7-9.5c1.8-0.9,4.7-3.2,9.1-11.5c1.1,4.5,1.7,9.2,1.7,14c0,32.5-26.4,58.9-58.9,58.9
		c-32.5,0-58.9-26.4-58.9-58.9c0-4.6,0.5-9,1.5-13.3c5.4,1.5,6.2,2.9,6.2,3c1.8,3.6,4.7,5.9,8.1,6.5c0.5,0.1,1.1,0.1,1.6,0.1
		c3.7,0,7.8-2,11.5-5.7c0.8-0.8,1.6-1.5,2.4-2.3c4.1-3.9,8.8-8.3,8.9-14.2c0.1-3.5-1.6-7-5-10.4c-3.6-3.6-5-9.7-5.5-14.8
		c8.6-4.9,18.5-7.7,29.1-7.7C104.3,37.5,113.3,39.9,121.3,43.9z"/>
	<path class="st0" d="M59.2,114.1c2.8,8.3,8.1,9.3,12.4,10c1.8,0.3,3.5,0.6,5.1,1.4c1.6,0.8,1.2,9.3-1.7,17.9
		c-0.5,1.5,0.1,3.2,1.5,4c0.5,0.3,4.3,2.4,8.3,2.4c1.3,0,2.6-0.2,3.8-0.7c1.9-0.8,4.4-2.7,5.5-6.9c1-3.8,2.2-7.1,3.5-10.2
		c2.7-6.9,5.3-13.4,2.9-23c-1.5-6-5-10.7-10.2-13.5c-5.7-3.1-12.9-3.7-19.5-1.5C60.6,97.4,55.1,101.9,59.2,114.1z M86.9,101.4
		c3.5,1.9,5.8,5,6.8,9.2c1.9,7.5,0,12.3-2.6,18.9c-1.2,3.2-2.7,6.8-3.7,11c-0.5,1.9-1.2,2.2-1.5,2.3c-0.9,0.4-2.3,0.2-3.7-0.2
		c1.9-6.9,4.4-19.7-2.6-23.2c-2.5-1.2-4.9-1.7-7-2c-3.9-0.7-5.6-1-7.1-5.5c-2.3-6.9-1.2-8.6,7.3-11.5
		C77.7,98.9,82.9,99.2,86.9,101.4z"/>
	<path class="st0" d="M95.6,0c-1.9,0-3.4,1.5-3.4,3.4s1.5,3.4,3.4,3.4c48.9,0,88.7,39.8,88.7,88.7c0,48.9-39.8,88.7-88.7,88.7
		c-48.9,0-88.7-39.8-88.7-88.7c0-18.7,5.8-36.7,16.6-51.6c1.9,1.5,4,2.7,6.4,3.3c1.4,0.4,2.9,0.6,4.4,0.6c3,0,5.9-0.8,8.6-2.3
		c6.9-4,20.3-25.4,23-29.6c0.7-1.1,0.7-2.4,0-3.5c-0.6-1.1-1.8-1.7-3.1-1.7c-5,0.2-30.2,1.3-37.1,5.4c-7.8,4.6-10.7,14.5-6.6,22.5
		C6.7,54.9,0,74.8,0,95.6c0,52.7,42.9,95.6,95.6,95.6s95.6-42.9,95.6-95.6C191.1,42.9,148.3,0,95.6,0z M29,21.9
		c3.4-2,16.7-3.4,27.4-4.1c-5.8,8.9-13.6,19.8-17.1,21.8c-2.4,1.4-5.1,1.7-7.8,1.1c-1.5-0.4-2.8-1.1-4-2.1c1.3-1.5,2.5-3,3.9-4.4
		c1.3-1.4,1.3-3.5-0.1-4.8c-1.4-1.3-3.5-1.3-4.8,0.1c-0.9,0.9-1.7,1.8-2.5,2.7C23.5,28.2,25.3,24,29,21.9z"/>
</g>
</svg>
