<svg id="Calque_1" data-name="Calque 1" xmlns="http://www.w3.org/2000/svg" viewBox="0 0 677.5 125"><defs><style>.cls-1{fill:#458AC6;}</style></defs><title>ECOPEL Logo Color 2</title><path class="cls-1" d="M8.69,7.65H89.32V19.13h-68V57.21H82.15V68.68H21.28v39H90.11v11.48H8.69Z"/><path class="cls-1" d="M110.5,63.74v-.32c0-31.55,23.58-57.68,56.41-57.68,20.23,0,32.34,7.17,43.49,17.69l-8.6,9.24c-9.4-8.92-19.92-15.3-35.05-15.3-24.7,0-43.18,20.08-43.18,45.73v.32c0,25.81,18.64,46.05,43.18,46.05,15.29,0,25.33-5.9,36-16.09L211,101.5c-11.63,11.79-24.38,19.6-44.61,19.6C134.24,121.1,110.5,95.76,110.5,63.74Z"/><path class="cls-1" d="M224.9,63.74v-.32c0-30.75,23.1-57.68,57-57.68s56.72,26.61,56.72,57.36v.32c0,30.75-23.1,57.68-57,57.68S224.9,94.49,224.9,63.74Zm100.7,0v-.32c0-25.33-18.49-46-44-46S238,37.77,238,63.1v.32c0,25.33,18.49,46.05,44,46.05S325.6,89.07,325.6,63.74Z"/><path d="M366.06,7.65h40.47c24.54,0,41.43,12.59,41.43,34.1v.32c0,23.42-20.24,35.53-43.5,35.53H374.35v41.59h-8.29ZM404.94,70c20.71,0,34.73-10.83,34.73-27.4v-.32c0-17.69-13.7-26.93-33.78-26.93H374.35V70Z"/><path d="M472.49,7.65h79.35V15.3H480.78V59.12h63.89v7.65H480.78v44.77h71.85v7.65H472.49Z"/><path d="M579.24,7.65h8.28V111.54H653v7.65H579.24Z"/><path d="M660.2,112.59h-2.46v-1h6v1h-2.45v6.6H660.2Zm5.23-1h1.17l2.73,4.2,2.7-4.2h1.15v7.65h-1.07v-5.86l-2.73,4.14h-.15l-2.71-4.14v5.86h-1.09Z"/></svg>