<?xml version="1.0" encoding="utf-8"?>
<!-- Generator: Adobe Illustrator 22.1.0, SVG Export Plug-In . SVG Version: 6.00 Build 0)  -->
<svg version="1.1" id="Capa_1" xmlns="http://www.w3.org/2000/svg" xmlns:xlink="http://www.w3.org/1999/xlink" x="0px" y="0px"
	 viewBox="0 0 52.8 52.8" style="enable-background:new 0 0 52.8 52.8;" xml:space="preserve">
<style type="text/css">
	.st0{fill:#4A4A4A;}
</style>
<g>
	<g>
		<path class="st0" d="M49.9,10.7V4.4c0-2.4-2-4.4-4.4-4.4h-38C5,0,3,2,3,4.4v6.3c0,1,0.7,1.8,1.5,2c-0.9,0.8-1.5,2-1.5,3.3v32.3
			c0,2.4,2,4.4,4.4,4.4h38c2.4,0,4.4-2,4.4-4.4V16.1c0-1.3-0.6-2.5-1.5-3.3C49.2,12.5,49.9,11.7,49.9,10.7z M5,4.4
			C5,3.1,6.1,2,7.4,2h38c1.3,0,2.4,1.1,2.4,2.4v6.3c0,0.1-0.1,0.1-0.1,0.1H5.1C5,10.8,5,10.8,5,10.7C5,10.7,5,4.4,5,4.4z M47.9,48.4
			c0,1.3-1.1,2.4-2.4,2.4h-38c-1.3,0-2.4-1.1-2.4-2.4V16.1c0-1.3,1.1-2.4,2.4-2.4h38c1.3,0,2.4,1.1,2.4,2.4
			C47.9,16.1,47.9,48.4,47.9,48.4z"/>
		<path class="st0" d="M10.9,8.9h9.6c0.9,0,1.6-0.7,1.6-1.6V5.6c0-0.9-0.7-1.6-1.6-1.6h-9.6c-0.9,0-1.6,0.7-1.6,1.6v1.7
			C9.2,8.2,10,8.9,10.9,8.9z M10.2,5.6c0-0.4,0.3-0.6,0.6-0.6h9.6c0.4,0,0.6,0.3,0.6,0.6v1.7c0,0.4-0.3,0.6-0.6,0.6h-9.6
			c-0.4,0-0.6-0.3-0.6-0.6C10.2,7.3,10.2,5.6,10.2,5.6z"/>
		<path class="st0" d="M33.3,8.9h0.9c0.9,0,1.6-0.7,1.6-1.6V5.6c0-0.9-0.7-1.6-1.6-1.6h-0.9c-0.9,0-1.6,0.7-1.6,1.6v1.7
			C31.6,8.2,32.4,8.9,33.3,8.9z M32.6,5.6c0-0.4,0.3-0.6,0.6-0.6h0.9c0.4,0,0.6,0.3,0.6,0.6v1.7c0,0.4-0.3,0.6-0.6,0.6h-0.9
			c-0.4,0-0.6-0.3-0.6-0.6V5.6z"/>
		<path class="st0" d="M39.5,8.9h0.9c0.9,0,1.6-0.7,1.6-1.6V5.6c0-0.9-0.7-1.6-1.6-1.6h-0.9c-0.9,0-1.6,0.7-1.6,1.6v1.7
			C37.8,8.2,38.6,8.9,39.5,8.9z M38.8,5.6c0-0.4,0.3-0.6,0.6-0.6h0.9c0.4,0,0.6,0.3,0.6,0.6v1.7c0,0.4-0.3,0.6-0.6,0.6h-0.9
			c-0.4,0-0.6-0.3-0.6-0.6V5.6z"/>
		<path class="st0" d="M43,31.1L43,31.1c-0.7-8.6-8-15.4-16.8-15.4c-9.3,0-16.8,7.5-16.8,16.8S17,49.2,26.2,49.2
			c8.7,0,15.9-6.7,16.7-15.3H43c0.6,0,1.1-0.5,1.1-1.1v-0.6C44.1,31.6,43.6,31.1,43,31.1z M26.2,47.2c-8.2,0-14.8-6.6-14.8-14.8
			s6.6-14.8,14.8-14.8c7.7,0,14,5.9,14.7,13.4h-3c-0.7-5.8-5.7-10.4-11.7-10.4c-6.5,0-11.8,5.3-11.8,11.8s5.3,11.8,11.8,11.8
			c6,0,10.9-4.5,11.7-10.3h3C40.2,41.4,33.9,47.2,26.2,47.2z M35.8,34h1c-0.7,5.2-5.2,9.3-10.7,9.3c-5.9,0-10.8-4.8-10.8-10.8
			s4.8-10.8,10.8-10.8c5.5,0,10,4.1,10.7,9.4h-1c-0.6,0-1.1,0.5-1.1,1.1v0.6C34.7,33.5,35.2,34,35.8,34z"/>
		<path class="st0" d="M20.3,24.7c-2.8,1.9-3.5,4.8-3.5,4.9c-0.1,0.3,0.1,0.5,0.4,0.6c0,0,0.1,0,0.1,0c0.2,0,0.4-0.2,0.5-0.4
			c0,0,0.6-2.5,3.1-4.3c0.2-0.2,0.3-0.5,0.1-0.7C20.8,24.6,20.5,24.6,20.3,24.7z"/>
	</g>
</g>
</svg>
