<?xml version="1.0" encoding="utf-8"?>
<!-- Generator: Adobe Illustrator 22.1.0, SVG Export Plug-In . SVG Version: 6.00 Build 0)  -->
<svg version="1.1" id="Capa_1" xmlns="http://www.w3.org/2000/svg" xmlns:xlink="http://www.w3.org/1999/xlink" x="0px" y="0px"
	 viewBox="0 0 512 512" style="enable-background:new 0 0 512 512;" xml:space="preserve">
<style type="text/css">
	.st0{fill:#1D1D1B;}
</style>
<g>
	<path class="st0" d="M441.6,186.5c-49.8-49.8-116-77.2-186.5-77.2s-136.7,27.4-186.5,77.2L0,255.1l70.4,70.4
		c49.8,49.8,116,77.2,186.5,77.2s136.7-27.4,186.5-77.2l68.7-68.7L441.6,186.5z M431.1,313.3c-46.5,46.5-108.4,72.2-174.2,72.2
		s-127.7-25.6-174.2-72.2l-58.2-58.2l56.4-56.4c46.5-46.5,108.4-72.2,174.2-72.2s127.7,25.6,174.2,72.2l58.2,58.2L431.1,313.3z"/>
	<path class="st0" d="M255.8,143.3c-62,0-112.4,50.4-112.4,112.4s50.4,112.4,112.4,112.4s112.4-50.4,112.4-112.4
		S317.8,143.3,255.8,143.3z M255.8,212.5c-23.8,0-43.2,19.4-43.2,43.2c0,4.8-3.9,8.6-8.6,8.6c-4.8,0-8.6-3.9-8.6-8.6
		c0-33.4,27.2-60.5,60.5-60.5c4.8,0,8.6,3.9,8.6,8.6C264.4,208.6,260.5,212.5,255.8,212.5z"/>
</g>
</svg>
